<svg width="21" height="25" viewBox="0 0 21 25" fill="none" xmlns="http://www.w3.org/2000/svg">
<path fill-rule="evenodd" clip-rule="evenodd" d="M3.6449 6H17.3551C18.3834 6 19.2193 6.8268 19.2193 7.82551V22.0039C19.2193 23.0108 18.3834 23.8294 17.3551 23.8294H3.6449C3.15115 23.8272 2.67825 23.6342 2.32911 23.2923C1.97997 22.9504 1.78285 22.4874 1.78065 22.0039V7.82551C1.78065 6.8268 2.61664 6 3.6449 6ZM19.6959 16.7729V13.7359H21V16.7729H19.6959ZM0 16.7729V13.7359H1.30414V16.7729H0ZM14.7385 24.1323H17.213V25H14.7385V24.1323ZM3.78702 24.1323H6.26154V25H3.78702V24.1323ZM18.5004 18.3856L15.541 18.9259C15.3989 18.9505 15.2818 19.0405 15.2818 19.1797V20.2684C15.2818 20.4076 15.3989 20.5222 15.541 20.5222H18.5004C18.6425 20.5222 18.7596 20.4076 18.7596 20.2684V18.6394C18.7596 18.5002 18.6425 18.3611 18.5004 18.3856ZM2.4996 18.3856L5.459 18.9259C5.59275 18.9505 5.71815 19.0405 5.71815 19.1797V20.2684C5.71815 20.4076 5.60111 20.5222 5.459 20.5222H2.4996C2.35748 20.5222 2.24045 20.4076 2.24045 20.2684V18.6394C2.24045 18.5002 2.35748 18.3611 2.4996 18.3856ZM6.65446 20.8087H14.3455V22.2576H6.65446V20.8087ZM2.80056 8.87333H18.1911V17.3132C15.9423 17.8453 13.3089 18.1482 10.5 18.1482C7.68272 18.1482 5.05772 17.8453 2.80056 17.3132V8.87333Z" fill="#AEB7DF"/>
<path d="M10.5 1L6 6L6.5 6.5L11 1.5L10.5 1Z" stroke="#AEB7DF"/>
<path d="M16.5 1L12 6L12.5 6.5L17 1.5L16.5 1Z" stroke="#AEB7DF"/>
</svg>
