<svg width="21" height="26" viewBox="0 0 21 26" fill="none" xmlns="http://www.w3.org/2000/svg">
<path fill-rule="evenodd" clip-rule="evenodd" d="M3.6449 6H17.3551C18.3834 6 19.2193 6.8268 19.2193 7.82551V22.0039C19.2193 23.0108 18.3834 23.8294 17.3551 23.8294L3.67221 23.7741C3.17846 23.7719 2.67825 23.6342 2.32911 23.2923C1.97997 22.9504 1.78285 22.4874 1.78065 22.0039V7.82551C1.78065 6.8268 2.61664 6 3.6449 6ZM19.6959 16.7729V13.7359H21V16.7729H19.6959ZM0 16.7729V13.7359H1.30414V16.7729H0ZM15.7443 23.8229H17.5134L18.7596 26H17L15.7443 23.8229ZM3.09955 23.7474L4.86105 23.8294L4 26H2L3.09955 23.7474ZM18.5004 18.3856L15.541 18.9259C15.3989 18.9505 15.2818 19.0405 15.2818 19.1797V20.2684C15.2818 20.4076 15.3989 20.5222 15.541 20.5222H18.5004C18.6425 20.5222 18.7596 20.4076 18.7596 20.2684V18.6394C18.7596 18.5002 18.6425 18.3611 18.5004 18.3856ZM2.4996 18.3856L5.459 18.9259C5.59275 18.9505 5.71815 19.0405 5.71815 19.1797V20.2684C5.71815 20.4076 5.60111 20.5222 5.459 20.5222H2.4996C2.35748 20.5222 2.24045 20.4076 2.24045 20.2684V18.6394C2.24045 18.5002 2.35748 18.3611 2.4996 18.3856ZM6.65446 20.8087H14.3455V22.2576H6.65446V20.8087ZM2.80056 8.87333H18.1911V17.3132C15.9423 17.8453 13.3089 18.1482 10.5 18.1482C7.68272 18.1482 5.05772 17.8453 2.80056 17.3132V8.87333Z" fill="#AEB7DF"/>
<path fill-rule="evenodd" clip-rule="evenodd" d="M10.9487 0.970142L7.25638 1.89322L8.94868 6.97014L8 7.28637L6 1.28637L6.71791 1.04707L6.70615 1L10.7061 0L10.9487 0.970142ZM15.1795 1.04707L15.1912 1L11.1912 0L10.9487 0.970142L14.641 1.89322L12.9487 6.97014L13.8974 7.28637L15.8974 1.28637L15.1795 1.04707Z" fill="#AEB7DF"/>
<path d="M6 0.5H15.8848" stroke="#AEB7DF"/>
</svg>
