<svg width="21" height="19" viewBox="0 0 21 19" fill="none" xmlns="http://www.w3.org/2000/svg">
<path fill-rule="evenodd" clip-rule="evenodd" d="M3.6449 0H17.3551C18.3834 0 19.2193 0.826799 19.2193 1.82551V16.0039C19.2193 17.0108 18.3834 17.8294 17.3551 17.8294H3.6449C3.15115 17.8272 2.67825 17.6342 2.32911 17.2923C1.97997 16.9504 1.78285 16.4874 1.78065 16.0039V1.82551C1.78065 0.826799 2.61664 0 3.6449 0ZM19.6959 10.7729V7.73589H21V10.7729H19.6959ZM0 10.7729V7.73589H1.30414V10.7729H0ZM14.7385 18.1323H17.213V19H14.7385V18.1323ZM3.78702 18.1323H6.26154V19H3.78702V18.1323ZM18.5004 12.3856L15.541 12.9259C15.3989 12.9505 15.2818 13.0405 15.2818 13.1797V14.2684C15.2818 14.4076 15.3989 14.5222 15.541 14.5222H18.5004C18.6425 14.5222 18.7596 14.4076 18.7596 14.2684V12.6394C18.7596 12.5002 18.6425 12.3611 18.5004 12.3856ZM2.4996 12.3856L5.459 12.9259C5.59275 12.9505 5.71815 13.0405 5.71815 13.1797V14.2684C5.71815 14.4076 5.60111 14.5222 5.459 14.5222H2.4996C2.35748 14.5222 2.24045 14.4076 2.24045 14.2684V12.6394C2.24045 12.5002 2.35748 12.3611 2.4996 12.3856ZM6.65446 14.8087H14.3455V16.2576H6.65446V14.8087ZM2.80056 2.87333H18.1911V11.3132C15.9423 11.8453 13.3089 12.1482 10.5 12.1482C7.68272 12.1482 5.05772 11.8453 2.80056 11.3132V2.87333Z" fill="#AEB7DF"/>
</svg>
