<svg width="16" height="16" viewBox="0 0 16 16" fill="none" xmlns="http://www.w3.org/2000/svg">
<path fill-rule="evenodd" clip-rule="evenodd" d="M2.77707 0H13.2229C14.0064 0 14.6433 0.689261 14.6433 1.52183V13.3416C14.6433 14.181 14.0064 14.8635 13.2229 14.8635H2.77707C2.40088 14.8617 2.04057 14.7008 1.77456 14.4158C1.50855 14.1307 1.35836 13.7447 1.35669 13.3416V1.52183C1.35669 0.689261 1.99363 0 2.77707 0ZM15.0064 8.98087V6.44903H16V8.98087H15.0064ZM0 8.98087V6.44903H0.993631V8.98087H0ZM11.2293 15.116H13.1146V15.8394H11.2293V15.116ZM2.88535 15.116H4.7707V15.8394H2.88535V15.116ZM14.0955 10.3253L11.8408 10.7757C11.7325 10.7961 11.6433 10.8712 11.6433 10.9872V11.8949C11.6433 12.0109 11.7325 12.1064 11.8408 12.1064H14.0955C14.2038 12.1064 14.293 12.0109 14.293 11.8949V10.5368C14.293 10.4208 14.2038 10.3048 14.0955 10.3253ZM1.90446 10.3253L4.15924 10.7757C4.26115 10.7961 4.35669 10.8712 4.35669 10.9872V11.8949C4.35669 12.0109 4.26752 12.1064 4.15924 12.1064H1.90446C1.79618 12.1064 1.70701 12.0109 1.70701 11.8949V10.5368C1.70701 10.4208 1.79618 10.3048 1.90446 10.3253ZM5.07006 12.3453H10.9299V13.5532H5.07006V12.3453ZM2.13376 2.39535H13.8599V9.43127C12.1465 9.87486 10.1401 10.1274 8 10.1274C5.8535 10.1274 3.8535 9.87486 2.13376 9.43127V2.39535Z" fill="#E44E6D"/>
</svg>
