<svg width="56" height="60" viewBox="0 0 56 60" fill="none" xmlns="http://www.w3.org/2000/svg">
<mask id="mask0_192_3652" style="mask-type:alpha" maskUnits="userSpaceOnUse" x="0" y="0" width="56" height="60">
<path d="M0 0H56V60H0V0Z" fill="#D9D9D9"/>
</mask>
<g mask="url(#mask0_192_3652)">
<path d="M5.39917 41.4524H27.6904V52.6435H5.39917V41.4524Z" fill="#8E3900"/>
<path d="M17.1567 57C13.5079 57 10.55 54.0421 10.55 50.3934C10.55 46.7446 13.5079 43.7867 17.1567 43.7867C20.8054 43.7867 23.7633 46.7446 23.7633 50.3934C23.7633 54.0421 20.8054 57 17.1567 57Z" fill="#3A4267"/>
<path d="M13.6904 50.3941C13.6904 51.1656 13.943 51.8789 14.37 52.4545C15.0007 53.3079 16.014 53.8597 17.156 53.8597C19.0702 53.8597 20.6223 52.3083 20.6223 50.3941C20.6223 48.9078 19.6878 47.6403 18.3744 47.1475C17.9956 47.0051 17.5846 46.9278 17.156 46.9278C15.2418 46.9278 13.6904 48.4792 13.6904 50.3941Z" fill="#466AA5"/>
<path d="M-51.6396 24.9174C-51.5546 24.3082 -51.462 23.6982 -51.3518 23.0798C-51.3434 23.0209 -51.3265 22.9527 -51.3181 22.893C-51.1995 22.2501 -51.064 21.6149 -50.9117 20.9712L40.5754 4.00306C40.7109 4.00306 40.8548 4.00306 40.9903 4.01148C41.0155 4.01148 41.0492 4.0199 41.0752 4.0199C41.1342 4.0199 41.1854 4.02832 41.236 4.02832H41.2444C41.2696 4.03674 41.2949 4.03674 41.3209 4.03674C41.3546 4.04515 41.3883 4.04515 41.4143 4.05357C41.6684 4.07883 41.9225 4.13011 42.1766 4.18904C42.2103 4.19746 42.2439 4.20588 42.2784 4.2143C42.2868 4.22272 42.2952 4.22272 42.3036 4.22272C42.3542 4.23956 42.4054 4.24798 42.4475 4.26482C42.4812 4.27323 42.5149 4.28165 42.5493 4.29007C42.5998 4.30691 42.6511 4.32375 42.7016 4.34059C42.7521 4.35742 42.8034 4.37426 42.8539 4.3911C42.8792 4.39952 42.9044 4.41636 42.9389 4.42478C42.9894 4.44161 43.0491 4.46764 43.108 4.49289C43.1501 4.50973 43.2014 4.52657 43.2435 4.55259C43.32 4.57785 43.3874 4.61152 43.4639 4.64597C43.506 4.67122 43.5489 4.68806 43.5994 4.71332C43.6247 4.73016 43.6583 4.73858 43.6844 4.75541C43.7433 4.78909 43.7946 4.81435 43.8451 4.84037C43.8956 4.87405 43.9469 4.8993 43.9974 4.93374C44.0479 4.959 44.0908 4.98426 44.1413 5.0187C44.1497 5.02712 44.1581 5.02712 44.1665 5.03554C44.2178 5.06079 44.2599 5.09447 44.302 5.11973C44.3441 5.1534 44.387 5.17866 44.4291 5.2131C44.4711 5.23836 44.514 5.26362 44.5561 5.29806C44.5814 5.3149 44.6066 5.34015 44.6411 5.35699C44.7513 5.44195 44.8615 5.53456 44.9625 5.62793C44.9878 5.64477 45.013 5.66161 45.0299 5.67844C45.0635 5.71212 45.098 5.73738 45.1232 5.76263C45.1569 5.79631 45.1914 5.82233 45.225 5.85601L45.411 6.04199C45.4447 6.07567 45.4784 6.11011 45.5044 6.14379C45.5465 6.17746 45.5809 6.21956 45.6146 6.254C45.6315 6.27926 45.6567 6.30451 45.682 6.32977C45.7241 6.3887 45.7669 6.43998 45.809 6.4905C45.8343 6.51575 45.8511 6.54101 45.8771 6.56703C45.894 6.60071 45.9192 6.62597 45.9361 6.65122C45.9782 6.71092 46.021 6.76143 46.0631 6.82037C46.08 6.84563 46.0968 6.87088 46.1136 6.90532C46.1389 6.93058 46.1557 6.95584 46.1726 6.99028C46.2062 7.03237 46.2399 7.08365 46.2744 7.13417C46.2744 7.13978 46.2772 7.14259 46.2828 7.14259C46.2912 7.16784 46.308 7.18468 46.3164 7.20994C46.3417 7.24361 46.3585 7.27806 46.3838 7.31173C46.4006 7.34541 46.4175 7.36225 46.4259 7.39669C46.4343 7.39669 46.4343 7.40511 46.4343 7.40511C46.4427 7.43113 46.4596 7.45562 46.4764 7.48164C46.5017 7.52374 46.5269 7.57502 46.5529 7.61711C46.5782 7.67681 46.6119 7.73574 46.6379 7.79544C46.6632 7.84596 46.6884 7.89724 46.7053 7.94775C46.7221 7.97301 46.7305 7.99827 46.7473 8.02352C46.7558 8.0572 46.7642 8.08322 46.781 8.10848C46.8063 8.16741 46.8231 8.21869 46.8491 8.27762C46.866 8.32814 46.8912 8.37942 46.9081 8.43835C46.9165 8.46361 46.9333 8.49728 46.9418 8.53173C46.9502 8.55698 46.9586 8.58224 46.967 8.60826C46.9754 8.6251 46.9754 8.64194 46.9838 8.65878C46.9923 8.68403 47.0007 8.71771 47.0091 8.74373C47.0259 8.78583 47.0344 8.82869 47.0512 8.87078C47.0596 8.90446 47.068 8.9389 47.0765 8.97257C47.0849 9.00625 47.0933 9.03227 47.1017 9.06595C47.1951 9.39582 47.2793 9.73488 47.3727 10.0908C47.3895 10.1505 47.4063 10.2094 47.4232 10.2683C47.525 10.6411 47.626 11.0215 47.7278 11.411C47.753 11.4876 47.7699 11.5718 47.7951 11.6567C47.8036 11.6988 47.812 11.7332 47.8204 11.7669C47.8541 11.8856 47.8877 12.0042 47.9138 12.1228C47.9474 12.2414 47.9811 12.3685 48.0156 12.4871C48.0156 12.504 48.024 12.5208 48.0324 12.5468C48.0408 12.6065 48.0576 12.6655 48.0745 12.7252C48.0913 12.7757 48.0997 12.8185 48.1082 12.8606C48.1418 12.9708 48.1671 13.0726 48.1931 13.1821C48.2352 13.326 48.2697 13.4699 48.3118 13.6137C48.337 13.724 48.3715 13.8426 48.3967 13.9612C48.4901 14.3087 48.5827 14.6638 48.6761 15.0197C48.7182 15.1973 48.761 15.3664 48.8115 15.5448C48.8536 15.7223 48.9049 15.9007 48.947 16.0782C48.9891 16.2558 49.0404 16.4341 49.0825 16.6117C49.1246 16.7724 49.159 16.9331 49.2011 17.0946C49.3197 17.5607 49.4384 18.0261 49.5486 18.483C49.5907 18.6606 49.6335 18.8305 49.6756 18.9996C49.6925 19.0593 49.7009 19.1183 49.7177 19.1688C49.7598 19.3463 49.8027 19.5155 49.8448 19.6854C49.8532 19.7191 49.8532 19.7443 49.8616 19.7788C49.8953 19.9142 49.929 20.0497 49.9634 20.1852C49.9803 20.2449 49.9887 20.3038 50.0055 20.3543C50.0392 20.5066 50.0736 20.6505 50.1073 20.7944C50.1241 20.8878 50.1494 20.972 50.1662 21.0569C50.2083 21.2092 50.2428 21.3531 50.2764 21.5054C50.2764 21.5138 50.2764 21.5307 50.2849 21.5391C50.3017 21.6233 50.3185 21.7083 50.3354 21.7848C50.3438 21.8016 50.3438 21.81 50.3438 21.8276C50.3606 21.895 50.3775 21.9631 50.3943 22.0305C50.4112 22.107 50.428 22.1912 50.4448 22.2677C50.4869 22.4285 50.5214 22.5808 50.555 22.7423C50.5635 22.7759 50.5719 22.8188 50.5803 22.8609C50.6224 23.0476 50.6652 23.242 50.7073 23.428C50.7158 23.4954 50.7326 23.5635 50.7494 23.6316C50.7494 23.6485 50.7579 23.6653 50.7579 23.6821C50.7747 23.7411 50.7831 23.8092 50.8 23.8681C50.8084 23.8934 50.8084 23.9186 50.8168 23.9446C50.8336 24.038 50.8505 24.1306 50.8757 24.224V24.2324C50.8841 24.2921 50.901 24.3426 50.9094 24.4016C50.9431 24.5799 50.9768 24.7483 51.0112 24.9182C51.1888 25.7991 51.3242 26.5691 51.4008 27.1875C51.8156 30.3033 51.9763 33.7666 52.0192 37.1196C52.0276 38.5593 52.0192 39.9729 51.9939 41.3192C51.9855 41.9284 51.9687 42.5216 51.9518 43.0971C51.9013 44.7396 51.8332 46.255 51.7659 47.5761C51.7238 48.3468 51.6725 49.041 51.6388 49.6586C51.5202 51.3432 50.1318 52.6474 48.4465 52.6474H25.0776C25.086 52.6221 25.086 52.5969 25.0944 52.5708C25.2888 51.8766 25.3822 51.1488 25.3822 50.3949C25.3822 47.2286 23.5958 44.4763 20.9706 43.0964C19.8616 42.5124 18.6079 42.1818 17.2793 42.1565C15.8656 42.1397 14.5278 42.4787 13.3591 43.0964C10.7599 44.4595 8.96434 47.1605 8.92225 50.2763C8.91383 51.0722 9.01562 51.8422 9.21003 52.5708C9.21844 52.5961 9.22686 52.6213 9.22686 52.6474H-37.3678C-37.165 51.9272 -37.0463 51.174 -37.0463 50.3949C-37.0463 45.7805 -40.789 42.0463 -45.3949 42.0463C-47.1729 42.0463 -48.8238 42.5966 -50.1708 43.5449C-50.1792 43.5028 -50.1961 43.4599 -50.2045 43.4178C-50.34 42.918 -50.4754 42.4014 -50.6025 41.8771C-50.6362 41.7417 -50.6706 41.5978 -50.6959 41.4539C-50.7295 41.3016 -50.764 41.1493 -50.7977 40.997L-50.8145 40.9373C-50.8397 40.8271 -50.865 40.7169 -50.891 40.599C-50.95 40.3112 -51.0097 40.0234 -51.0686 39.7265C-51.2714 38.6848 -51.4497 37.6011 -51.5936 36.5005C-51.7123 35.6455 -51.8056 34.7646 -51.873 33.876C-51.8983 33.4612 -51.9235 33.0464 -51.9488 32.6231C-51.9656 32.1999 -51.9824 31.7766 -51.9909 31.3442C-52.033 29.2525 -51.9319 27.1025 -51.6434 24.9174H-51.6396Z" fill="#ED7D2B"/>
<path d="M36.9797 44.5865H41.0622C41.4716 44.5865 41.8069 44.2513 41.8069 43.8418C41.8069 43.4324 41.4716 43.0971 41.0622 43.0971H36.9797C36.5703 43.0971 36.235 43.4324 36.235 43.8418C36.235 44.2513 36.5703 44.5865 36.9797 44.5865Z" fill="#FFB93E"/>
<path d="M-51.6395 24.9174C-51.6395 24.9174 50.9752 24.6097 51.0189 24.7904C51.1941 25.5167 51.3288 26.1504 51.41 26.6586C51.9319 29.9359 52.0613 33.6992 52.0199 37.1212C52.0092 38.0167 51.9863 38.8884 51.9557 39.7219H-15.0191V39.7257H-51.064C-51.2668 38.684 -51.4452 37.6003 -51.589 36.4997C-51.7077 35.6448 -51.801 34.7638 -51.8684 33.8753C-51.8937 33.4604 -51.9189 33.0456 -51.9442 32.6224C-51.961 32.1991 -51.9778 31.7759 -51.9863 31.3434C-52.0284 29.2517 -51.9273 27.1018 -51.6388 24.9167L-51.6395 24.9174Z" fill="#F99746"/>
<path d="M52.0796 41.3215H50.33C49.9504 41.3215 49.642 41.6299 49.642 42.0096V46.8895C49.642 47.2691 49.9504 47.5776 50.33 47.5776H52.0796C52.4593 47.5776 52.7677 47.2691 52.7677 46.8895V42.0096C52.7677 41.6299 52.4593 41.3215 52.0796 41.3215Z" fill="#FFB93E"/>
<path d="M-51.6396 24.9174C-51.5547 24.3082 -51.4621 23.6982 -51.3518 23.0798C-51.3434 23.0209 -51.3266 22.9527 -51.3182 22.893C-51.1995 22.2501 -51.0641 21.6149 -50.9118 20.9712C-50.8184 20.5648 -50.7089 20.1584 -50.5987 19.752C-50.5306 19.5231 -50.4717 19.3035 -50.4043 19.0746C-50.3959 19.041 -50.3791 18.9981 -50.3706 18.9644C-50.2857 18.6935 -50.2015 18.4141 -50.1165 18.1432C-50.0232 17.8638 -49.9306 17.5845 -49.8288 17.3051C-49.7783 17.1528 -49.727 17.0005 -49.668 16.8482C-49.6344 16.7548 -49.6007 16.6622 -49.5662 16.5688C-48.9991 15.0618 -48.3218 13.5548 -47.5258 12.0562C-47.4072 11.8442 -47.2885 11.6238 -47.1699 11.4126C-47.1278 11.3368 -47.0849 11.2603 -47.0428 11.1845C-46.9923 11.0911 -46.941 11.0062 -46.8905 10.922C-46.5346 10.3035 -46.1542 9.6859 -45.7478 9.06748C-45.4516 8.60138 -45.1294 8.14445 -44.7995 7.67911C-44.6472 7.45869 -44.4865 7.24745 -44.3258 7.02702C-44.224 6.89997 -44.1222 6.7645 -44.0212 6.62903C-43.7502 6.28155 -43.4793 5.92642 -43.1915 5.57895C-42.8785 5.20622 -42.5647 4.82583 -42.2348 4.4531C-42.0993 4.30079 -41.9639 4.14848 -41.8284 4.00383H13.3774C13.3774 4.00383 13.3804 4.00153 13.3827 4H40.5762C40.7139 4 40.8509 4.00383 40.9872 4.01225C41.017 4.01454 41.0476 4.01684 41.0775 4.01913C41.1288 4.02296 41.1808 4.02679 41.2328 4.03215C41.2374 4.03215 41.242 4.03215 41.2466 4.03368C41.2719 4.03597 41.2956 4.03827 41.3209 4.04133H41.3232C41.353 4.04439 41.3844 4.04822 41.4142 4.05281C41.6706 4.08419 41.924 4.13164 42.1719 4.19134C42.2071 4.19976 42.2424 4.20895 42.2783 4.21813C42.2875 4.22043 42.2959 4.22272 42.3051 4.22502C42.3526 4.23726 42.4008 4.25104 42.4482 4.26482C42.4812 4.274 42.5133 4.28395 42.5454 4.2939C42.5967 4.30997 42.648 4.32605 42.6993 4.34288C42.7506 4.35972 42.8011 4.37733 42.8516 4.39569C42.8791 4.40488 42.9067 4.41483 42.9335 4.42554C42.9901 4.44621 43.046 4.4684 43.1019 4.49137C43.1493 4.5105 43.1968 4.52963 43.2442 4.5503C43.3169 4.58168 43.3889 4.61459 43.4601 4.64826C43.5052 4.66893 43.5504 4.69113 43.5948 4.71409C43.6246 4.72939 43.6545 4.74394 43.6843 4.76001C43.7371 4.78756 43.7899 4.81588 43.842 4.84496C43.894 4.87405 43.9461 4.90313 43.9973 4.93298C44.044 4.9613 44.0899 4.98962 44.1366 5.01794C44.1473 5.02483 44.1573 5.03095 44.1673 5.03783C44.2116 5.06539 44.256 5.09447 44.3004 5.12356C44.3433 5.15188 44.3854 5.18019 44.4275 5.21004C44.4696 5.23913 44.5109 5.26898 44.5515 5.29882C44.579 5.31949 44.6058 5.33939 44.6334 5.36006C44.7459 5.44501 44.8561 5.53379 44.9632 5.62564C44.9847 5.64401 45.0061 5.66314 45.0283 5.68227C45.0604 5.71059 45.0926 5.73891 45.124 5.76799C45.1561 5.79708 45.1875 5.8254 45.2181 5.85601C45.2832 5.91724 45.3467 5.98 45.4094 6.04429C45.4416 6.07797 45.4737 6.11164 45.5059 6.14608C45.5403 6.18359 45.5748 6.22109 45.6077 6.25859C45.6306 6.28385 45.6528 6.30987 45.675 6.3359C45.7209 6.38794 45.7646 6.43998 45.8067 6.49279C45.8281 6.51882 45.8495 6.54561 45.871 6.57239C45.8924 6.59918 45.9138 6.62673 45.9337 6.65352C45.9758 6.70863 46.0171 6.7645 46.0569 6.82037C46.0768 6.84792 46.096 6.87548 46.1151 6.9038C46.1342 6.93135 46.1541 6.95967 46.1725 6.98799C46.7833 7.00942 47.4851 7.07524 48.2068 7.22525C50.8979 7.78626 52.5977 9.27107 53.1419 11.5274L53.4695 11.496C53.9065 11.4547 54.303 11.7509 54.3864 12.1818L55.5 19.5C55.5957 19.9937 55.5712 20.5801 55.0706 20.6276L52.9957 20.8258C52.5273 20.8702 52.5444 20.4684 52.5 20L51.351 12.5537C51.3081 12.1037 51.6242 11.7026 52.065 11.633C51.5959 9.59941 50.3713 8.36715 47.9191 7.85206C47.378 7.73879 46.9428 7.70798 46.5363 7.60065C46.5363 7.60065 46.4136 7.37832 46.4289 7.40358C46.4442 7.42884 46.458 7.45563 46.4718 7.48165C46.497 7.52757 46.5223 7.57426 46.5468 7.62018C46.5766 7.67758 46.6065 7.73575 46.6348 7.79392C46.6593 7.84366 46.6822 7.89418 46.7052 7.94469C46.7175 7.97225 46.7305 7.9998 46.7419 8.02735C46.7542 8.05567 46.7664 8.08322 46.7779 8.11154C46.8016 8.16741 46.8246 8.22329 46.8468 8.27992C46.8675 8.33197 46.8866 8.38478 46.9065 8.43759C46.918 8.46973 46.9295 8.50188 46.9402 8.53402C46.9494 8.55928 46.9578 8.5853 46.9662 8.61132C46.9715 8.6274 46.9769 8.64194 46.9823 8.65801C46.9915 8.6871 47.0006 8.71618 47.0098 8.74526C47.0228 8.78736 47.0351 8.82869 47.0473 8.87078C47.058 8.90599 47.068 8.94196 47.0772 8.97794C47.0841 9.00702 47.0932 9.03687 47.1009 9.06672C47.1904 9.39812 47.2823 9.73947 47.3764 10.0915C47.3925 10.1497 47.4078 10.2086 47.4239 10.2676C47.5241 10.6388 47.6252 11.0199 47.7293 11.4087C47.7515 11.4929 47.7736 11.5771 47.7966 11.6621C47.8027 11.6843 47.8089 11.7065 47.815 11.7294C47.8311 11.7914 47.8479 11.8542 47.8647 11.9169C47.8831 11.9866 47.9015 12.0555 47.9191 12.1251C47.9505 12.2453 47.9826 12.3654 48.0147 12.4864C48.0193 12.5047 48.0247 12.5239 48.03 12.543C48.0492 12.6142 48.0683 12.6861 48.0867 12.7573C48.0959 12.7917 48.105 12.8262 48.1135 12.8606C48.1418 12.967 48.1693 13.0726 48.1969 13.1798C48.1969 13.1821 48.1969 13.1829 48.1984 13.1844C48.2359 13.3267 48.2734 13.4706 48.3109 13.6145H18.3905V24.9182H-51.6411L-51.6396 24.9174Z" fill="#394166"/>
<path d="M-51.6396 24.9174C-51.5547 24.3082 -51.4621 23.6982 -51.3518 23.0798C-51.3434 23.0209 -51.3266 22.9527 -51.3182 22.893C-51.1995 22.2501 -51.0641 21.6149 -50.9118 20.9712C-50.8184 20.5648 -50.7089 20.1584 -50.5987 19.752C-50.5306 19.5231 -50.4717 19.3035 -50.4043 19.0746C-50.3959 19.041 -50.3791 18.9981 -50.3706 18.9644C-50.2857 18.6935 -50.2015 18.4141 -50.1165 18.1432C-50.0232 17.8638 -49.9306 17.5845 -49.8288 17.3051C-49.7783 17.1528 -49.727 17.0005 -49.668 16.8482C-49.6344 16.7548 -49.6007 16.6622 -49.5662 16.5688C-48.9991 15.0618 -48.3218 13.5548 -47.5258 12.0562C-47.4072 11.8442 -47.2885 11.6238 -47.1699 11.4126C-47.1278 11.3368 -47.0849 11.2603 -47.0428 11.1845C-46.9923 11.0911 -46.941 11.0062 -46.8905 10.922C-46.5346 10.3035 -46.1543 9.6859 -45.7478 9.06749H47.1039C47.1973 9.39736 47.2815 9.73641 47.3749 10.0923C47.3917 10.152 47.4086 10.2109 47.4254 10.2699C47.5272 10.6426 47.6282 11.023 47.73 11.4126C47.7553 11.4891 47.7721 11.5733 47.7974 11.6582C47.8058 11.7003 47.8142 11.7348 47.8226 11.7685C47.8563 11.8871 47.89 12.0057 47.916 12.1244C47.9497 12.243 47.9833 12.37 48.0178 12.4887C48.0178 12.5055 48.0262 12.5223 48.0346 12.5484C48.0431 12.6081 48.0599 12.667 48.0767 12.7267C48.0936 12.7772 48.102 12.8201 48.1104 12.8622C48.1441 12.9724 48.1693 13.0742 48.1954 13.1836C48.2375 13.3275 48.2719 13.4714 48.314 13.6153C48.3392 13.7255 48.3737 13.8441 48.3989 13.9628C48.4923 14.3102 48.5849 14.6654 48.6783 15.0213C48.7204 15.1988 48.7633 15.368 48.8138 15.5463C48.8559 15.7239 48.9071 15.9022 48.9492 16.0798C48.9913 16.2573 49.0426 16.4357 49.0847 16.6132C49.1268 16.7739 49.1612 16.9347 49.2033 17.0962C49.322 17.5623 49.4406 18.0276 49.5508 18.4845C49.5929 18.6621 49.6358 18.832 49.6779 19.0012C49.6947 19.0609 49.7031 19.1198 49.72 19.1703C49.7621 19.3479 49.8049 19.517 49.847 19.6869C49.8554 19.7206 49.8554 19.7459 49.8638 19.7803C49.8975 19.9158 49.9312 20.0512 49.9656 20.1867C49.9825 20.2464 49.9909 20.3053 50.0077 20.3559C50.0414 20.5082 50.0759 20.652 50.1095 20.7959C50.1264 20.8893 50.1516 20.9735 50.1685 21.0585C50.2106 21.2108 50.245 21.3547 50.2787 21.507C50.2787 21.5154 50.2787 21.5322 50.2871 21.5406C50.3039 21.6248 50.3208 21.7098 50.3376 21.7863C50.346 21.8032 50.346 21.8116 50.346 21.8292C50.3629 21.8965 50.3797 21.9647 50.3965 22.032C50.4134 22.1085 50.4302 22.1927 50.4471 22.2693C50.4892 22.43 50.5236 22.5823 50.5573 22.7438C50.5657 22.7775 50.5741 22.8203 50.5825 22.8624C50.6246 23.0492 50.6675 23.2436 50.7096 23.4296C50.718 23.4969 50.7348 23.565 50.7517 23.6331C50.7517 23.65 50.7601 23.6668 50.7601 23.6837C50.7769 23.7426 50.7853 23.8107 50.8022 23.8696C50.8106 23.8949 50.8106 23.9202 50.819 23.9462C50.8359 24.0396 50.8527 24.1322 50.878 24.2255V24.234C50.8864 24.2937 50.9032 24.3442 50.9116 24.4031C50.9453 24.5814 50.979 24.7498 51.0134 24.9197L48.5245 24.9281H47.5846L42.4536 24.9366L36.1118 24.945H34.9767L-2.35471 25.0123C-2.34629 24.9787 -2.33786 24.945 -2.32102 24.919H-51.6419L-51.6396 24.9174Z" fill="#38568A"/>
<path d="M34.2251 12.8338C34.18 12.1075 34.757 11.4937 35.4849 11.4937H41.2512C44.9624 11.4937 47.5187 14.4342 47.9718 18.2144L49.3105 34.6353C49.3564 35.1978 48.9125 35.6792 48.3484 35.6792H36.5289C36.0306 35.6792 35.6181 35.292 35.5875 34.7945L34.2259 12.8346L34.2251 12.8338Z" fill="#38568A"/>
<path d="M35.3533 13.877L36.3391 28.321L36.6843 33.3747C36.6843 34.0253 37.2116 34.5526 37.8614 34.5526H47.0718C48.6898 34.5526 48.2084 32.1532 48.0782 30.6393L47.0603 18.7677C47.0603 18.5389 47.0488 18.3123 47.0251 18.0888C46.7113 15.0542 44.3149 12.6938 41.405 12.6938H37.9525C37.2522 12.6938 35.354 12.6938 35.354 13.877H35.3533Z" fill="#466AA5"/>
<path d="M13.6905 50.3941C13.6905 51.1656 13.9431 51.8789 14.3701 52.4545C18.2184 51.3929 18.4725 48.4792 18.3745 47.1482C17.9957 47.0059 17.5847 46.9286 17.1561 46.9286C15.2419 46.9286 13.6905 48.48 13.6905 50.3949V50.3941Z" fill="#5F87C1"/>
<path d="M36 27.8084L36.3479 33.6406C36.3479 34.3914 36.8793 35 37.5341 35H46.8161C48.4466 35 47.9615 32.231 47.8304 30.4838L46.8045 16.7835C46.8045 16.5194 46.7929 16.2579 46.769 16C45.1516 20.3165 41.9113 26.2336 36.0008 27.8084H36Z" fill="#3F6098"/>
<path d="M20.64 11.1875H3.46674C2.73964 11.1875 2.15031 11.7776 2.15031 12.504V21.5736C2.15031 22.3006 2.74041 22.89 3.46674 22.89H20.64C21.3663 22.89 21.9564 22.2999 21.9564 21.5736V12.504C21.9564 11.7769 21.3663 11.1875 20.64 11.1875Z" fill="#466AA5"/>
<path d="M25.06 11.1875H32.7534C33.2577 11.1875 33.6665 11.5963 33.6665 12.1006V21.9777C33.6665 22.4819 33.2577 22.8907 32.7534 22.8907H25.06C24.5557 22.8907 24.1469 22.4819 24.1469 21.9777V12.1006C24.1469 11.5963 24.5557 11.1875 25.06 11.1875Z" fill="#466AA5"/>
</g>
</svg>
